<?xml version="1.0" encoding="utf-8"?>
<!-- Generator: Adobe Illustrator 20.1.0, SVG Export Plug-In . SVG Version: 6.00 Build 0)  -->
<svg version="1.1" id="Layer_1" xmlns="http://www.w3.org/2000/svg" xmlns:xlink="http://www.w3.org/1999/xlink" x="0px" y="0px"
	 viewBox="0 0 230 230" style="enable-background:new 0 0 230 230;" xml:space="preserve">
<style type="text/css">
	.st0{fill:#DB4A3C;}
	.st1{fill:#FFFFFF;}
</style>
<g>
	<circle class="st0" cx="115" cy="115" r="115"/>
	<path class="st1" d="M193.8,105.1h-14.9V90.2h-11.9v14.9h-14.9v11.9h14.9v14.9h11.9v-14.9h14.9 M98.7,102.1v18.5h25.9
		c-2,11.2-11.7,19.3-25.9,19.3c-15.7,0-28.4-13.3-28.4-29S83,82,98.7,82c7.1,0,13.4,2.4,18.4,7.2v0l13.4-13.4
		c-8.2-7.7-19-12.4-31.8-12.4c-26.3,0-47.5,21.3-47.5,47.5s21.3,47.5,47.5,47.5c27.5,0,45.6-19.3,45.6-46.5c0-3.5-0.3-6.8-0.9-10
		C143.4,102.1,98.7,102.1,98.7,102.1z"/>
</g>
</svg>
